<mxfile host="app.diagrams.net" modified="2021-05-19T01:45:08.710Z" agent="5.0 (Macintosh)" etag="Qa-m65L7MrXYcouFK_Dm" version="14.6.13" type="github">
  <diagram id="prtHgNgQTEPvFCAcTncT" name="Page-1">
    <mxGraphModel dx="1298" dy="733" grid="1" gridSize="10" guides="1" tooltips="1" connect="1" arrows="1" fold="1" page="1" pageScale="1" pageWidth="827" pageHeight="1169" math="0" shadow="0">
      <root>
        <mxCell id="0" />
        <mxCell id="1" parent="0" />
        <mxCell id="dNxyNK7c78bLwvsdeMH5-19" value="Pool" style="swimlane;html=1;childLayout=stackLayout;resizeParent=1;resizeParentMax=0;horizontal=0;startSize=20;horizontalStack=0;" parent="1" vertex="1">
          <mxGeometry x="120" y="120" width="450" height="520" as="geometry" />
        </mxCell>
        <mxCell id="dNxyNK7c78bLwvsdeMH5-20" value="Clients" style="swimlane;html=1;startSize=20;horizontal=0;" parent="dNxyNK7c78bLwvsdeMH5-19" vertex="1">
          <mxGeometry x="20" width="430" height="160" as="geometry" />
        </mxCell>
        <mxCell id="dNxyNK7c78bLwvsdeMH5-24" value="&lt;div&gt;Webapp using Injected JS from Cybersource / &lt;br&gt;&lt;/div&gt;&lt;div&gt;IOS SDK/&lt;/div&gt;&lt;div&gt;Android SDK&lt;br&gt;&lt;/div&gt;" style="rounded=0;whiteSpace=wrap;html=1;fontFamily=Helvetica;fontSize=12;fontColor=#000000;align=center;" parent="dNxyNK7c78bLwvsdeMH5-20" vertex="1">
          <mxGeometry x="50" y="20" width="180" height="90" as="geometry" />
        </mxCell>
        <mxCell id="WHCQN7cFtItYUwNKnAx7-12" value="&lt;div&gt;Webapp&amp;nbsp; / &lt;br&gt;&lt;/div&gt;&lt;div&gt;IOS /&lt;/div&gt;&lt;div&gt;Android&lt;br&gt;&lt;/div&gt;" style="rounded=0;whiteSpace=wrap;html=1;fontFamily=Helvetica;fontSize=12;fontColor=#000000;align=center;" vertex="1" parent="dNxyNK7c78bLwvsdeMH5-20">
          <mxGeometry x="240" y="20" width="180" height="90" as="geometry" />
        </mxCell>
        <mxCell id="WHCQN7cFtItYUwNKnAx7-2" value="&lt;div&gt;API Gateway&lt;/div&gt;" style="swimlane;html=1;startSize=20;horizontal=0;" vertex="1" parent="dNxyNK7c78bLwvsdeMH5-19">
          <mxGeometry x="20" y="160" width="430" height="120" as="geometry" />
        </mxCell>
        <mxCell id="WHCQN7cFtItYUwNKnAx7-7" value="api.meijer.com" style="rounded=0;whiteSpace=wrap;html=1;fontFamily=Helvetica;fontSize=12;fontColor=#000000;align=center;" vertex="1" parent="WHCQN7cFtItYUwNKnAx7-2">
          <mxGeometry x="160" y="30" width="230" height="60" as="geometry" />
        </mxCell>
        <mxCell id="dNxyNK7c78bLwvsdeMH5-21" value="SAP Commerce" style="swimlane;html=1;startSize=20;horizontal=0;" parent="dNxyNK7c78bLwvsdeMH5-19" vertex="1">
          <mxGeometry x="20" y="280" width="430" height="120" as="geometry" />
        </mxCell>
        <mxCell id="WHCQN7cFtItYUwNKnAx7-14" value="Hybris OCC" style="rounded=0;whiteSpace=wrap;html=1;fontFamily=Helvetica;fontSize=12;fontColor=#000000;align=center;" vertex="1" parent="dNxyNK7c78bLwvsdeMH5-21">
          <mxGeometry x="160" y="30" width="130" height="60" as="geometry" />
        </mxCell>
        <mxCell id="dNxyNK7c78bLwvsdeMH5-22" value="Cybersource" style="swimlane;html=1;startSize=20;horizontal=0;" parent="dNxyNK7c78bLwvsdeMH5-19" vertex="1">
          <mxGeometry x="20" y="400" width="430" height="120" as="geometry" />
        </mxCell>
        <mxCell id="dNxyNK7c78bLwvsdeMH5-34" value="CyberSource Device Fingerprinting Server" style="rounded=0;whiteSpace=wrap;html=1;fontFamily=Helvetica;fontSize=12;align=center;fillColor=#fff2cc;strokeColor=#d6b656;" parent="dNxyNK7c78bLwvsdeMH5-22" vertex="1">
          <mxGeometry x="50" y="20" width="80" height="60" as="geometry" />
        </mxCell>
        <mxCell id="WHCQN7cFtItYUwNKnAx7-10" value="CyberSource Decision Manager" style="rounded=0;whiteSpace=wrap;html=1;fontFamily=Helvetica;fontSize=12;align=center;fillColor=#f8cecc;strokeColor=#b85450;" vertex="1" parent="dNxyNK7c78bLwvsdeMH5-22">
          <mxGeometry x="274" y="20" width="80" height="60" as="geometry" />
        </mxCell>
        <mxCell id="WHCQN7cFtItYUwNKnAx7-9" style="edgeStyle=orthogonalEdgeStyle;rounded=0;orthogonalLoop=1;jettySize=auto;html=1;entryX=0.5;entryY=0;entryDx=0;entryDy=0;exitX=0.5;exitY=1;exitDx=0;exitDy=0;" edge="1" parent="dNxyNK7c78bLwvsdeMH5-19" source="dNxyNK7c78bLwvsdeMH5-24" target="dNxyNK7c78bLwvsdeMH5-34">
          <mxGeometry relative="1" as="geometry">
            <Array as="points">
              <mxPoint x="160" y="130" />
              <mxPoint x="110" y="130" />
            </Array>
          </mxGeometry>
        </mxCell>
        <mxCell id="WHCQN7cFtItYUwNKnAx7-35" value="A1" style="edgeLabel;html=1;align=center;verticalAlign=middle;resizable=0;points=[];" vertex="1" connectable="0" parent="WHCQN7cFtItYUwNKnAx7-9">
          <mxGeometry x="-0.1" y="-1" relative="1" as="geometry">
            <mxPoint as="offset" />
          </mxGeometry>
        </mxCell>
        <mxCell id="WHCQN7cFtItYUwNKnAx7-13" style="edgeStyle=orthogonalEdgeStyle;rounded=0;orthogonalLoop=1;jettySize=auto;html=1;exitX=0.5;exitY=1;exitDx=0;exitDy=0;entryX=0.5;entryY=0;entryDx=0;entryDy=0;" edge="1" parent="dNxyNK7c78bLwvsdeMH5-19" source="WHCQN7cFtItYUwNKnAx7-12" target="WHCQN7cFtItYUwNKnAx7-7">
          <mxGeometry relative="1" as="geometry" />
        </mxCell>
        <mxCell id="WHCQN7cFtItYUwNKnAx7-24" value="B1" style="edgeLabel;html=1;align=center;verticalAlign=middle;resizable=0;points=[];" vertex="1" connectable="0" parent="WHCQN7cFtItYUwNKnAx7-13">
          <mxGeometry x="-0.6444" y="1" relative="1" as="geometry">
            <mxPoint as="offset" />
          </mxGeometry>
        </mxCell>
        <mxCell id="WHCQN7cFtItYUwNKnAx7-15" style="edgeStyle=orthogonalEdgeStyle;rounded=0;orthogonalLoop=1;jettySize=auto;html=1;entryX=0;entryY=0.5;entryDx=0;entryDy=0;exitX=0;exitY=0.5;exitDx=0;exitDy=0;" edge="1" parent="dNxyNK7c78bLwvsdeMH5-19" source="WHCQN7cFtItYUwNKnAx7-7" target="WHCQN7cFtItYUwNKnAx7-14">
          <mxGeometry relative="1" as="geometry" />
        </mxCell>
        <mxCell id="WHCQN7cFtItYUwNKnAx7-25" value="B2" style="edgeLabel;html=1;align=center;verticalAlign=middle;resizable=0;points=[];" vertex="1" connectable="0" parent="WHCQN7cFtItYUwNKnAx7-15">
          <mxGeometry x="0.2125" y="-2" relative="1" as="geometry">
            <mxPoint as="offset" />
          </mxGeometry>
        </mxCell>
        <mxCell id="WHCQN7cFtItYUwNKnAx7-19" style="edgeStyle=orthogonalEdgeStyle;rounded=0;orthogonalLoop=1;jettySize=auto;html=1;exitX=0.5;exitY=0;exitDx=0;exitDy=0;entryX=0.283;entryY=1.033;entryDx=0;entryDy=0;entryPerimeter=0;" edge="1" parent="dNxyNK7c78bLwvsdeMH5-19" source="WHCQN7cFtItYUwNKnAx7-14" target="WHCQN7cFtItYUwNKnAx7-7">
          <mxGeometry relative="1" as="geometry" />
        </mxCell>
        <mxCell id="WHCQN7cFtItYUwNKnAx7-26" value="B3" style="edgeLabel;html=1;align=center;verticalAlign=middle;resizable=0;points=[];" vertex="1" connectable="0" parent="WHCQN7cFtItYUwNKnAx7-19">
          <mxGeometry x="-0.3462" y="2" relative="1" as="geometry">
            <mxPoint y="-1" as="offset" />
          </mxGeometry>
        </mxCell>
        <mxCell id="WHCQN7cFtItYUwNKnAx7-21" style="edgeStyle=orthogonalEdgeStyle;rounded=0;orthogonalLoop=1;jettySize=auto;html=1;exitX=1;exitY=0.5;exitDx=0;exitDy=0;entryX=0.988;entryY=0.617;entryDx=0;entryDy=0;entryPerimeter=0;" edge="1" parent="dNxyNK7c78bLwvsdeMH5-19" source="WHCQN7cFtItYUwNKnAx7-7" target="WHCQN7cFtItYUwNKnAx7-10">
          <mxGeometry relative="1" as="geometry" />
        </mxCell>
        <mxCell id="WHCQN7cFtItYUwNKnAx7-27" value="B4" style="edgeLabel;html=1;align=center;verticalAlign=middle;resizable=0;points=[];" vertex="1" connectable="0" parent="WHCQN7cFtItYUwNKnAx7-21">
          <mxGeometry x="-0.1846" y="2" relative="1" as="geometry">
            <mxPoint as="offset" />
          </mxGeometry>
        </mxCell>
        <mxCell id="WHCQN7cFtItYUwNKnAx7-22" style="edgeStyle=orthogonalEdgeStyle;rounded=0;orthogonalLoop=1;jettySize=auto;html=1;exitX=0.75;exitY=0;exitDx=0;exitDy=0;entryX=0.75;entryY=1;entryDx=0;entryDy=0;" edge="1" parent="dNxyNK7c78bLwvsdeMH5-19" source="WHCQN7cFtItYUwNKnAx7-10" target="WHCQN7cFtItYUwNKnAx7-7">
          <mxGeometry relative="1" as="geometry" />
        </mxCell>
        <mxCell id="WHCQN7cFtItYUwNKnAx7-28" value="B5" style="edgeLabel;html=1;align=center;verticalAlign=middle;resizable=0;points=[];" vertex="1" connectable="0" parent="WHCQN7cFtItYUwNKnAx7-22">
          <mxGeometry x="-0.3819" relative="1" as="geometry">
            <mxPoint as="offset" />
          </mxGeometry>
        </mxCell>
        <mxCell id="WHCQN7cFtItYUwNKnAx7-23" style="edgeStyle=orthogonalEdgeStyle;rounded=0;orthogonalLoop=1;jettySize=auto;html=1;exitX=0.5;exitY=1;exitDx=0;exitDy=0;entryX=0.885;entryY=-0.05;entryDx=0;entryDy=0;entryPerimeter=0;" edge="1" parent="dNxyNK7c78bLwvsdeMH5-19" source="WHCQN7cFtItYUwNKnAx7-7" target="WHCQN7cFtItYUwNKnAx7-14">
          <mxGeometry relative="1" as="geometry" />
        </mxCell>
        <mxCell id="WHCQN7cFtItYUwNKnAx7-29" value="B6" style="edgeLabel;html=1;align=center;verticalAlign=middle;resizable=0;points=[];" vertex="1" connectable="0" parent="WHCQN7cFtItYUwNKnAx7-23">
          <mxGeometry x="-0.2644" y="2" relative="1" as="geometry">
            <mxPoint y="1" as="offset" />
          </mxGeometry>
        </mxCell>
        <mxCell id="WHCQN7cFtItYUwNKnAx7-11" style="edgeStyle=orthogonalEdgeStyle;rounded=0;orthogonalLoop=1;jettySize=auto;html=1;exitX=0.5;exitY=0;exitDx=0;exitDy=0;" edge="1" parent="1" source="dNxyNK7c78bLwvsdeMH5-24">
          <mxGeometry relative="1" as="geometry">
            <mxPoint x="280" y="130" as="targetPoint" />
          </mxGeometry>
        </mxCell>
      </root>
    </mxGraphModel>
  </diagram>
</mxfile>
